<?xml version="1.0" encoding="utf-8"?>
<!-- Generator: Adobe Illustrator 23.0.1, SVG Export Plug-In . SVG Version: 6.00 Build 0)  -->
<svg version="1.1" id="Capa_1" xmlns="http://www.w3.org/2000/svg" xmlns:xlink="http://www.w3.org/1999/xlink" x="0px" y="0px"
	 viewBox="0 0 500 500" style="enable-background:new 0 0 500 500;" xml:space="preserve">
<style type="text/css">
	.st0{fill:#00B426;}
	.st1{fill-rule:evenodd;clip-rule:evenodd;fill:#00B426;}
	.st2{fill:#ED1C24;}
	.st3{fill:#FF151F;}
	.st4{fill:#FFFFFF;}
</style>
<g>
	<g>
		<g>
			<path class="st0" d="M-4430,498c-136.75,0-248-111.25-248-248S-4566.75,2-4430,2s248,111.25,248,248S-4293.25,498-4430,498z
				 M-4430,49.24c-110.7,0-200.76,90.06-200.76,200.76s90.06,200.76,200.76,200.76c110.7,0,200.76-90.06,200.76-200.76
				S-4319.3,49.24-4430,49.24z"/>
		</g>
	</g>
	<g>
		<path class="st0" d="M-4506.34,263.78c0,15.22-12.33,27.55-27.55,27.55c-15.22,0-27.56-12.33-27.56-27.55
			c0-15.22,12.33-27.56,27.56-27.56C-4518.68,236.22-4506.34,248.56-4506.34,263.78z"/>
	</g>
	<g>
		<path class="st0" d="M-4403.01,263.78c0,15.22-12.33,27.55-27.55,27.55c-15.22,0-27.56-12.33-27.56-27.55
			c0-15.22,12.33-27.56,27.56-27.56C-4415.34,236.22-4403.01,248.56-4403.01,263.78z"/>
	</g>
	<g>
		<path class="st0" d="M-4299.67,263.78c0,15.22-12.33,27.55-27.55,27.55c-15.22,0-27.56-12.33-27.56-27.55
			c0-15.22,12.33-27.56,27.56-27.56C-4312.01,236.22-4299.67,248.56-4299.67,263.78z"/>
	</g>
</g>
<g>
	<g>
		<path class="st0" d="M-3933.57,379.61c-6.63,0-13-2.8-17.5-7.78l-58.5-64.81c-8.72-9.66-7.96-24.56,1.71-33.28
			c9.66-8.72,24.56-7.95,33.28,1.71l37.01,41l101.95-172.69c6.61-11.21,21.07-14.94,32.27-8.31c11.21,6.62,14.93,21.06,8.31,32.27
			l-118.25,200.31c-3.81,6.46-10.47,10.72-17.93,11.47C-3931.99,379.57-3932.78,379.61-3933.57,379.61z"/>
	</g>
	<g>
		<path class="st0" d="M-3910,497.44c-136.44,0-247.44-111-247.44-247.44S-4046.44,2.56-3910,2.56s247.44,111,247.44,247.44
			S-3773.56,497.44-3910,497.44z M-3910,49.69c-110.45,0-200.31,89.86-200.31,200.31s89.86,200.31,200.31,200.31
			c110.45,0,200.31-89.86,200.31-200.31S-3799.55,49.69-3910,49.69z"/>
	</g>
</g>
<g>
	<g>
		<g>
			<path class="st0" d="M-3390,497.64c-136.55,0-247.64-111.09-247.64-247.64S-3526.55,2.36-3390,2.36s247.64,111.09,247.64,247.64
				S-3253.45,497.64-3390,497.64z M-3390,49.53c-110.54,0-200.47,89.93-200.47,200.47c0,110.54,89.93,200.47,200.47,200.47
				c110.54,0,200.47-89.93,200.47-200.47C-3189.53,139.46-3279.46,49.53-3390,49.53z"/>
		</g>
	</g>
	<g>
		<path class="st1" d="M-3336.28,379.81c-37.13,0-74.26,0-111.39,0c-0.77-0.35-1.51-0.85-2.32-1.01
			c-24.05-5.07-39.71-23.49-39.99-48.09c-0.33-28.81-0.17-57.63-0.04-86.43c0.07-16.66,7.51-29.6,20.52-39.78
			c1.98-1.56,3.65-4.8,3.73-7.3c0.37-12.87-0.03-25.76,0.22-38.63c0.49-24.69,10.69-44.49,30.41-59.45
			c10.34-7.84,22.38-11.26,34.66-14.16c5.69,0,11.36,0,17.04,0c0.98,0.36,1.95,0.91,2.97,1.07c33.02,5.03,58.33,30.82,61.29,63.92
			c1.38,15.39,0.75,30.97,0.8,46.46c0.01,3.78,0.9,6.21,4.22,8.64c12.26,8.96,19.84,21.14,20.04,36.52
			c0.41,30.79,0.22,61.59,0.03,92.37c-0.06,10.15-4.13,19.02-10.27,27.05C-3312.48,371.6-3323.77,376.73-3336.28,379.81z
			 M-3392.29,352.21c15.45,0,30.92,0.12,46.36-0.03c14.83-0.15,24.56-9.96,24.63-24.91c0.11-26.31,0.1-52.62,0.01-78.93
			c-0.06-15.52-10.06-25.33-25.59-25.33c-30.07-0.03-60.14-0.03-90.21,0c-15.51,0.01-25.52,9.85-25.57,25.36
			c-0.1,26.1-0.09,52.2-0.01,78.31c0.05,15.72,9.64,25.41,25.28,25.52C-3422.35,352.31-3407.31,352.21-3392.29,352.21z
			 M-3346.23,192.39c0-11.87,0.02-23.03-0.01-34.19c-0.06-22.93-17.55-42.99-39.53-45.34c-24.45-2.62-46.67,11.94-50.44,35.54
			c-2.26,14.19-0.41,29.05-0.41,44C-3407.15,192.39-3377,192.39-3346.23,192.39z"/>
		<path class="st1" d="M-3367.57,269.05c0.02,7.63-3.13,13.7-8.53,19.04c-1.87,1.84-3.29,4.93-3.45,7.54
			c-0.47,7.38,0,14.8-0.23,22.21c-0.25,8.17-4.52,12.48-11.94,12.6c-7.72,0.11-12.21-4.32-12.45-12.73
			c-0.2-6.75-0.28-13.51,0.02-20.26c0.2-4.43-0.92-7.48-4.54-10.56c-8.34-7.08-10.02-19.48-4.82-29.23
			c5.17-9.71,16.55-14.84,27.1-12.24C-3375.23,248.17-3367.67,257.67-3367.57,269.05z"/>
	</g>
</g>
<g>
	<g>
		<g>
			<path class="st1" d="M-2831.24,350.9c-25.81,0-51.63,0-77.44,0c-0.53-0.24-1.05-0.59-1.61-0.7
				c-16.72-3.52-27.61-16.33-27.81-33.43c-0.23-20.03-0.12-40.06-0.03-60.09c0.05-11.58,5.22-20.58,14.26-27.66
				c1.38-1.08,2.54-3.33,2.59-5.08c0.26-8.95-0.02-17.91,0.15-26.86c0.34-17.17,7.43-30.93,21.14-41.33
				c7.19-5.45,15.56-7.83,24.1-9.85c3.96,0,7.9,0,11.85,0c0.68,0.25,1.36,0.63,2.06,0.74c22.96,3.5,40.55,21.43,42.61,44.44
				c0.96,10.7,0.52,21.53,0.56,32.3c0.01,2.63,0.62,4.32,2.93,6.01c8.53,6.23,13.79,14.69,13.93,25.39
				c0.29,21.41,0.16,42.82,0.02,64.22c-0.04,7.05-2.87,13.22-7.14,18.81C-2814.69,345.19-2822.53,348.75-2831.24,350.9z
				 M-2870.17,331.71c10.74,0,21.5,0.08,32.23-0.02c10.31-0.1,17.08-6.93,17.12-17.32c0.08-18.29,0.07-36.58,0-54.87
				c-0.04-10.79-7-17.61-17.79-17.61c-20.91-0.02-41.81-0.02-62.72,0c-10.78,0-17.75,6.85-17.78,17.63
				c-0.07,18.15-0.06,36.29,0,54.44c0.03,10.93,6.71,17.67,17.58,17.75C-2891.07,331.77-2880.62,331.71-2870.17,331.71z
				 M-2838.15,220.59c0-8.25,0.02-16.01,0-23.77c-0.04-15.94-12.2-29.89-27.48-31.52c-17-1.82-32.45,8.3-35.07,24.71
				c-1.57,9.86-0.29,20.2-0.29,30.59C-2880.5,220.59-2859.54,220.59-2838.15,220.59z"/>
			<path class="st1" d="M-2852.99,273.89c0.01,5.31-2.17,9.53-5.93,13.24c-1.3,1.28-2.29,3.43-2.4,5.24
				c-0.32,5.13,0,10.29-0.16,15.44c-0.17,5.68-3.14,8.67-8.3,8.76c-5.36,0.08-8.49-3-8.66-8.85c-0.14-4.7-0.19-9.4,0.02-14.08
				c0.14-3.08-0.64-5.2-3.16-7.34c-5.8-4.92-6.97-13.55-3.35-20.32c3.59-6.75,11.5-10.32,18.84-8.51
				C-2858.31,259.38-2853.06,265.98-2852.99,273.89z"/>
		</g>
	</g>
	<g>
		<g>
			<g>
				<path class="st0" d="M-2870,497.5c-136.47,0-247.5-111.03-247.5-247.5S-3006.47,2.5-2870,2.5s247.5,111.03,247.5,247.5
					S-2733.53,497.5-2870,497.5z M-2870,49.64c-110.48,0-200.36,89.88-200.36,200.36s89.88,200.36,200.36,200.36
					c110.48,0,200.36-89.88,200.36-200.36S-2759.52,49.64-2870,49.64z"/>
			</g>
		</g>
	</g>
	<g id="X1Z29j_2_">
		<g>
			<path class="st0" d="M-2850.45,65.03c0.97,2.22,2.56,4.38,2.79,6.68c0.45,4.36,0.13,8.8,0.13,13.75c10.34,0,20.23-0.02,30.11,0
				c28.96,0.08,51.95,15.72,61.94,42.77c2.38,6.44,3.07,13.51,4.66,20.86c-9.83,0-18.47,0-27.48,0c-0.79-11.76-5.1-22.16-15-28.83
				c-5.48-3.7-12.21-6.85-18.66-7.53c-11.5-1.2-23.21-0.34-35.58-0.34c0,4.63,0.09,9.17-0.02,13.71c-0.15,6.14-2.85,7.71-8.15,4.67
				c-15.73-9.02-31.43-18.08-47.09-27.2c-5.86-3.41-5.92-6.13-0.16-9.49c14.92-8.71,29.91-17.29,44.86-25.95
				c1.59-0.92,3.05-2.06,4.56-3.11C-2852.5,65.03-2851.48,65.03-2850.45,65.03z"/>
			<path class="st0" d="M-2889.5,434.97c-0.77-2.67-1.95-5.29-2.22-8.01c-0.38-3.86-0.1-7.79-0.1-12.4
				c-5.94,0-11.52,0.24-17.08-0.05c-10.54-0.55-21.36-0.09-31.54-2.39c-27.23-6.14-47.8-33.42-47.26-61.23c8.63,0,17.28,0,26.32,0
				c1,11.31,4.92,21.5,14.32,28.24c4.99,3.58,11.06,7.15,16.93,7.7c12.49,1.17,25.17,0.36,38.37,0.36c0-4.68-0.07-9.42,0.02-14.16
				c0.11-5.29,2.61-6.82,7.26-4.17c16.18,9.22,32.31,18.52,48.4,27.91c4.93,2.88,4.81,6.04-0.36,9.06
				c-15.48,9.05-31.05,17.97-46.57,26.95c-1.16,0.67-2.26,1.45-3.39,2.18C-2887.44,434.97-2888.47,434.97-2889.5,434.97z"/>
		</g>
	</g>
</g>
<g>
	<g>
		<g>
			<g>
				<path class="st0" d="M-2350,496.89c-136.14,0-246.89-110.75-246.89-246.89S-2486.14,3.11-2350,3.11
					c136.14,0,246.89,110.75,246.89,246.89S-2213.86,496.89-2350,496.89z M-2350,50.14c-110.21,0-199.86,89.65-199.86,199.86
					c0,110.21,89.65,199.86,199.86,199.86c110.21,0,199.86-89.66,199.86-199.86C-2150.14,139.79-2239.79,50.14-2350,50.14z"/>
			</g>
		</g>
	</g>
	<path class="st0" d="M-2232.56,165.67h-44.38v-14.79c0-40.79-33.18-73.97-73.97-73.97c-40.79,0-73.97,33.18-73.97,73.97v14.79
		h-44.38c-8.18,0-14.79,6.61-14.79,14.79v162.73c0,16.32,13.27,29.59,29.59,29.59h207.11c16.32,0,29.59-13.27,29.59-29.59V180.46
		C-2217.76,172.28-2224.38,165.67-2232.56,165.67z M-2395.28,150.88c0-24.47,19.91-44.38,44.38-44.38
		c24.47,0,44.38,19.91,44.38,44.38v14.79h-88.76V150.88z M-2454.46,343.19V195.26h29.59l0.2,29.59c0.97,7.18,7.05,12.73,14.5,12.73
		c7.44,0,13.53-5.55,14.5-12.73l0.39-29.59h88.76l0.2,29.59c0.97,7.18,7.06,12.73,14.5,12.73c7.44,0,13.53-5.55,14.5-12.73
		l0.39-29.59h29.59l0.03,147.93H-2454.46z"/>
</g>
<g>
	<g>
		<g>
			<g>
				<path class="st0" d="M-1310,496.42c-135.88,0-246.42-110.54-246.42-246.42S-1445.88,3.58-1310,3.58s246.42,110.54,246.42,246.42
					S-1174.12,496.42-1310,496.42z M-1310,50.51c-110,0-199.49,89.49-199.49,199.49c0,110,89.49,199.49,199.49,199.49
					c110,0,199.49-89.49,199.49-199.49C-1110.51,140-1200,50.51-1310,50.51z"/>
			</g>
		</g>
	</g>
	<g>
		<path class="st0" d="M-1247.88,142h-25.49v-8.5c0-23.43-19.06-42.49-42.49-42.49c-23.43,0-42.49,19.06-42.49,42.49v8.5h-25.49
			c-4.7,0-8.5,3.8-8.5,8.5v93.48c0,9.37,7.62,17,17,17h118.97c9.37,0,17-7.62,17-17V150.5C-1239.38,145.8-1243.18,142-1247.88,142z
			 M-1341.36,133.5c0-14.06,11.44-25.49,25.49-25.49c14.05,0,25.49,11.44,25.49,25.49v8.5h-50.99V133.5z M-1375.35,243.98V159h17
			l0.11,17c0.56,4.12,4.05,7.31,8.33,7.31c4.28,0,7.77-3.19,8.33-7.31l0.22-17h50.99l0.11,17c0.56,4.12,4.05,7.31,8.33,7.31
			s7.77-3.19,8.33-7.31l0.23-17h17l0.02,84.98H-1375.35z"/>
		<g id="sC4mfG_1_">
			<g>
				<path class="st0" d="M-1381.79,395.73c-15.39-13.64-29.48-28.61-43.84-43.28c-3.27-3.34-2.34-7.73,0.91-11
					c16.37-16.46,32.66-33.03,49.37-49.14c7.83-7.55,17.94-9.93,28.71-9.9c29.13,0.08,58.26-0.03,87.39,0.09
					c3.97,0.02,6.59-0.92,9.09-4.41c12.4-17.28,29.84-25.81,50.68-27.91c4.15-0.42,8.18-0.16,10.86,3.85
					c2.65,3.97,0.62,7.37-1.2,10.82c-11.81,22.49-23.44,45.08-35.49,67.44c-10.64,19.75-27.43,30.14-49.93,30.47
					c-20.77,0.3-41.56,0.16-62.33,0c-3.75-0.03-6.4,1.01-9.11,3.67c-10.03,9.8-19.3,20.4-30.21,29.29
					C-1378.53,395.73-1380.16,395.73-1381.79,395.73z M-1209.46,268.06c-14.8,4.75-24.81,12.79-31.49,24.87
					c-4.33,7.83-8.43,15.79-12.54,23.74c-4.88,9.44-12.65,14.02-23.19,14.03c-16.92,0.02-33.84,0.04-50.76-0.01
					c-7.17-0.02-10.62-2.83-10.48-8.2c0.14-5.22,3.29-7.59,10.31-7.61c14.68-0.03,29.39-0.67,44.02,0.22
					c10.18,0.62,15.95-3.01,19.64-12.26c1.79-4.47,0.54-4.61-3.17-4.6c-26.91,0.08-53.82,0.03-80.72,0.06
					c-7,0.01-13.26,2.16-18.28,7.14c-13.17,13.07-26.19,26.28-39.41,39.29c-2.34,2.3-2.19,3.67,0.05,5.84
					c7.76,7.52,15.49,15.07,22.91,22.92c2.78,2.94,4.25,2.33,6.71-0.22c6.91-7.21,14.25-14.01,21.1-21.27
					c3.67-3.89,7.8-5.3,13.02-5.26c22.42,0.15,44.85,0.14,67.27,0.04c14.13-0.07,25.75-6.08,32.7-18.08
					C-1230.59,309.36-1220.69,289.28-1209.46,268.06z"/>
			</g>
		</g>
	</g>
</g>
<g>
	<g>
		<g>
			<g>
				<path class="st0" d="M-790,496c-135.65,0-246-110.35-246-246S-925.65,4-790,4s246,110.35,246,246S-654.35,496-790,496z
					 M-790,50.86c-109.81,0-199.14,89.33-199.14,199.14c0,109.81,89.33,199.14,199.14,199.14c109.81,0,199.14-89.33,199.14-199.14
					C-590.86,140.19-680.19,50.86-790,50.86z"/>
			</g>
		</g>
	</g>
	<g>
		<path class="st0" d="M-730.47,142.19h-25.45v-8.48c0-23.39-19.03-42.42-42.42-42.42c-23.39,0-42.42,19.03-42.42,42.42v8.48h-25.45
			c-4.69,0-8.48,3.79-8.48,8.48v93.32c0,9.36,7.61,16.97,16.97,16.97h118.77c9.36,0,16.97-7.61,16.97-16.97v-93.32
			C-721.99,145.98-725.78,142.19-730.47,142.19z M-823.79,133.7c0-14.03,11.42-25.45,25.45-25.45c14.03,0,25.45,11.42,25.45,25.45
			v8.48h-50.9V133.7z M-857.72,243.99v-84.83h16.97l0.11,16.97c0.55,4.12,4.05,7.3,8.31,7.3c4.27,0,7.76-3.19,8.31-7.3l0.22-16.97
			h50.9l0.11,16.97c0.56,4.12,4.05,7.3,8.31,7.3s7.76-3.19,8.31-7.3l0.23-16.97h16.97l0.02,84.83H-857.72z"/>
		<g id="sC4mfG_2_">
			<g>
				<path class="st0" d="M-864.16,395.47c-15.36-13.61-29.42-28.56-43.76-43.21c-3.26-3.33-2.34-7.72,0.91-10.98
					c16.35-16.44,32.6-32.97,49.28-49.06c7.81-7.53,17.9-9.91,28.66-9.88c29.08,0.08,58.16-0.03,87.24,0.09
					c3.96,0.02,6.57-0.92,9.07-4.4c12.38-17.25,29.78-25.77,50.6-27.86c4.14-0.42,8.17-0.16,10.84,3.85
					c2.64,3.97,0.62,7.36-1.19,10.8c-11.79,22.45-23.4,45-35.43,67.32c-10.62,19.71-27.39,30.09-49.85,30.42
					c-20.74,0.3-41.49,0.16-62.23,0c-3.74-0.03-6.39,1.01-9.1,3.66c-10.01,9.79-19.27,20.36-30.16,29.24
					C-860.9,395.47-862.53,395.47-864.16,395.47z M-692.13,268.03c-14.77,4.75-24.77,12.77-31.44,24.82
					c-4.33,7.81-8.41,15.76-12.52,23.7c-4.87,9.42-12.62,13.99-23.15,14c-16.89,0.02-33.78,0.04-50.67-0.01
					c-7.16-0.02-10.61-2.83-10.46-8.19c0.14-5.21,3.28-7.58,10.29-7.59c14.65-0.03,29.34-0.67,43.94,0.22
					c10.17,0.62,15.92-3,19.61-12.23c1.78-4.46,0.54-4.6-3.16-4.59c-26.86,0.08-53.72,0.03-80.59,0.06
					c-6.98,0.01-13.24,2.15-18.25,7.13c-13.14,13.05-26.15,26.23-39.34,39.22c-2.33,2.3-2.18,3.66,0.05,5.83
					c7.74,7.51,15.46,15.05,22.87,22.88c2.78,2.94,4.25,2.33,6.69-0.22c6.9-7.19,14.22-13.99,21.06-21.24
					c3.67-3.89,7.78-5.29,13-5.25c22.38,0.15,44.77,0.14,67.15,0.04c14.1-0.07,25.71-6.07,32.65-18.05
					C-713.21,309.25-703.33,289.22-692.13,268.03z"/>
			</g>
		</g>
	</g>
	<g>
		<path class="st0" d="M-803.8,224.16c-1.21,0-2.37-0.51-3.19-1.42l-10.68-11.83c-1.59-1.76-1.45-4.49,0.31-6.08
			c1.76-1.59,4.48-1.45,6.08,0.31l6.76,7.49l18.62-31.53c1.21-2.05,3.85-2.73,5.89-1.52c2.05,1.21,2.73,3.85,1.52,5.89l-21.59,36.58
			c-0.7,1.18-1.91,1.96-3.27,2.09C-803.51,224.16-803.65,224.16-803.8,224.16z"/>
	</g>
</g>
<g>
	<g>
		<g>
			<g>
				<path class="st2" d="M-261,492.89c-136.14,0-246.89-110.75-246.89-246.89S-397.14-0.89-261-0.89S-14.11,109.86-14.11,246
					S-124.86,492.89-261,492.89z M-261,46.14c-110.21,0-199.86,89.66-199.86,199.86S-371.21,445.86-261,445.86
					c110.21,0,199.86-89.66,199.86-199.86S-150.79,46.14-261,46.14z"/>
			</g>
		</g>
	</g>
	<g>
		<g>
			<g>
				<path class="st2" d="M-156.5,357.92h-202.56c-19.83,0-35.96-16.13-35.96-35.96V170.04c0-19.83,16.13-35.96,35.96-35.96h202.56
					c19.83,0,35.96,16.13,35.96,35.96v151.92C-120.54,341.79-136.67,357.92-156.5,357.92z M-355.79,158.28
					c-7.83,0-14.21,6.37-14.21,14.21v147.02c0,7.83,6.37,14.21,14.21,14.21h196.03c7.83,0,14.21-6.37,14.21-14.21V172.49
					c0-7.83-6.37-14.21-14.21-14.21H-355.79z"/>
			</g>
		</g>
		<g>
			<g>
				<path class="st2" d="M-345.62,290.75v5.89h94.06v-5.89c0-17.38-21.22-35.26-47.03-35.26
					C-324.4,255.49-345.62,273.37-345.62,290.75z"/>
			</g>
			<g>
				<path class="st2" d="M-273.26,220.68c0-14.57-10.75-25.32-25.32-25.32c-14.58,0-25.32,10.75-25.32,25.32S-313.16,246-298.58,246
					C-284.01,246-273.26,235.25-273.26,220.68z"/>
			</g>
			<g>
				<path class="st2" d="M-224.57,233.34h49.08c3.93,0,7.11-3.18,7.11-7.11v-11.1c0-3.93-3.18-7.11-7.11-7.11h-49.08
					c-3.93,0-7.11,3.18-7.11,7.11v11.1C-231.68,230.16-228.49,233.34-224.57,233.34z"/>
			</g>
			<g>
				<path class="st2" d="M-219.02,265.72v11.2c0,3.9,3.16,7.06,7.06,7.06h36.52c3.9,0,7.06-3.16,7.06-7.06v-11.2
					c0-3.9-3.16-7.06-7.06-7.06h-36.52C-215.86,258.66-219.02,261.82-219.02,265.72z"/>
			</g>
		</g>
	</g>
</g>
<g>
	<g>
		<g>
			<g>
				<path class="st2" d="M250,497C113.8,497,3,386.2,3,250S113.8,3,250,3c136.2,0,247,110.8,247,247S386.2,497,250,497z M250,50.05
					c-110.26,0-199.95,89.7-199.95,199.95S139.74,449.95,250,449.95c110.26,0,199.95-89.7,199.95-199.95S360.26,50.05,250,50.05z"/>
			</g>
		</g>
	</g>
	<path class="st2" d="M285.8,250.9l50.75-50.74c9.19-9.18,9.19-24.08,0-33.26c-9.19-9.19-24.09-9.19-33.26,0l-50.75,50.74
		l-50.75-50.74c-9.19-9.19-24.09-9.19-33.26,0c-9.19,9.18-9.19,24.08,0,33.26l50.75,50.74l-50.75,50.74
		c-9.19,9.18-9.19,24.08,0,33.26c4.59,4.59,10.61,6.89,16.63,6.89s12.04-2.3,16.63-6.89l50.75-50.74l50.75,50.74
		c4.59,4.59,10.61,6.89,16.63,6.89c6.02,0,12.04-2.3,16.63-6.89c9.19-9.18,9.19-24.08,0-33.26L285.8,250.9z"/>
</g>
<g>
	<g>
		<g>
			<g>
				<g>
					<path class="st3" d="M770,497c-136.2,0-247-110.8-247-247S633.8,3,770,3c136.2,0,247,110.8,247,247S906.2,497,770,497z
						 M770,50.05c-110.26,0-199.95,89.7-199.95,199.95c0,110.26,89.7,199.95,199.95,199.95c110.26,0,199.95-89.7,199.95-199.95
						C969.95,139.74,880.26,50.05,770,50.05z"/>
				</g>
			</g>
		</g>
	</g>
	<g>
		<g>
			<path class="st2" d="M811.17,363.59c-12.99,0-23.52-10.53-23.52-23.52V149.5c0-12.99,10.53-23.52,23.52-23.52
				c12.99,0,23.52,10.53,23.52,23.52v190.57C834.69,353.06,824.16,363.59,811.17,363.59z"/>
		</g>
		<g>
			<path class="st2" d="M728.83,363.59c-12.99,0-23.52-10.53-23.52-23.52V149.5c0-12.99,10.53-23.52,23.52-23.52
				c12.99,0,23.52,10.53,23.52,23.52v190.57C752.36,353.06,741.82,363.59,728.83,363.59z"/>
		</g>
	</g>
</g>
<g>
	<g>
		<g>
			<g>
				<path class="st0" d="M1290,496.89c-136.14,0-246.89-110.75-246.89-246.89S1153.86,3.11,1290,3.11
					c136.14,0,246.89,110.75,246.89,246.89S1426.14,496.89,1290,496.89z M1290,50.14c-110.21,0-199.86,89.66-199.86,199.86
					c0,110.21,89.65,199.86,199.86,199.86c110.21,0,199.86-89.65,199.86-199.86C1489.86,139.79,1400.21,50.14,1290,50.14z"/>
			</g>
		</g>
	</g>
	<g id="X1Z29j_1_">
		<g>
			<path class="st0" d="M1309.5,65.48c0.97,2.22,2.55,4.37,2.79,6.66c0.45,4.35,0.13,8.78,0.13,13.72c10.32,0,20.18-0.02,30.04,0
				c28.89,0.08,51.82,15.68,61.79,42.67c2.37,6.43,3.06,13.48,4.65,20.8c-9.8,0-18.42,0-27.41,0c-0.79-11.73-5.09-22.11-14.96-28.76
				c-5.47-3.69-12.18-6.84-18.61-7.51c-11.47-1.2-23.15-0.34-35.49-0.34c0,4.62,0.09,9.15-0.02,13.67
				c-0.15,6.13-2.84,7.69-8.13,4.66c-15.69-8.99-31.35-18.03-46.98-27.13c-5.85-3.4-5.9-6.11-0.16-9.46
				c14.88-8.68,29.84-17.24,44.74-25.89c1.58-0.92,3.04-2.06,4.55-3.1C1307.45,65.48,1308.48,65.48,1309.5,65.48z"/>
			<path class="st0" d="M1270.55,434.52c-0.77-2.66-1.95-5.28-2.22-7.99c-0.38-3.85-0.1-7.77-0.1-12.37
				c-5.92,0-11.5,0.24-17.04-0.05c-10.52-0.55-21.31-0.09-31.47-2.38c-27.16-6.13-47.68-33.34-47.15-61.08c8.61,0,17.23,0,26.25,0
				c1,11.28,4.91,21.45,14.29,28.17c4.98,3.57,11.04,7.13,16.89,7.68c12.46,1.16,25.11,0.36,38.27,0.36c0-4.67-0.07-9.4,0.02-14.12
				c0.1-5.28,2.61-6.8,7.24-4.16c16.14,9.2,32.23,18.48,48.28,27.84c4.92,2.87,4.8,6.02-0.36,9.04
				c-15.45,9.03-30.97,17.93-46.45,26.89c-1.16,0.67-2.26,1.45-3.38,2.17C1272.6,434.52,1271.58,434.52,1270.55,434.52z"/>
			<path class="st0" d="M1289.99,165.87c37.06,0,74.11,0.04,111.17-0.03c10.6-0.02,19.06,3.64,23.98,13.4
				c1.34,2.65,2.27,5.83,2.28,8.77c0.17,41.84,0.31,83.68,0.06,125.51c-0.08,13.01-9.84,22.28-22.93,22.75
				c-7.85,0.28-15.71,0.1-23.56,0.1c-67.45,0-134.91,0.01-202.36-0.01c-13.36,0-22.37-6.24-25.45-17.72
				c-0.65-2.43-0.74-5.06-0.74-7.59c-0.04-39.79-0.07-79.58-0.01-119.37c0.03-16.1,9.61-25.69,25.89-25.74
				c37.23-0.1,74.45-0.03,111.68-0.03C1289.99,165.9,1289.99,165.88,1289.99,165.87z M1202.26,315.79c59.09,0,117.88,0,176.95,0
				c-0.61-8.17,1.15-15.25,6.81-20.98c5.76-5.84,12.95-7.78,21.14-7.01c0-24.65,0-48.78,0-72.92c-14.66,0.61-28.44-6.91-28.32-28.19
				c-58.6,0-117.2,0-175.88,0c0.07,8.25-2.27,15.07-8.26,20.52c-6.14,5.58-13.54,6.54-21.54,5.91c0,24.74,0,49.06,0,73.41
				C1191.98,284.28,1204.62,296.88,1202.26,315.79z"/>
			<path class="st0" d="M1351.67,251.33c-0.12-7.73,6.35-14.46,14.06-14.61c8.11-0.16,14.61,6.12,14.83,14.33
				c0.21,8.02-6.27,14.53-14.51,14.57C1358.3,265.65,1351.79,259.18,1351.67,251.33z"/>
			<path class="st0" d="M1199.58,250.9c0.09-7.89,6.44-14.13,14.41-14.16c7.97-0.03,14.56,6.69,14.46,14.73
				c-0.1,8.03-6.7,14.24-15,14.1C1205.63,265.45,1199.49,258.94,1199.58,250.9z"/>
			<path class="st0" d="M1290.06,198.83c-28.17-0.19-52.07,23.42-52.27,51.63c-0.21,29.49,22.77,52.75,52.26,52.92
				c28.65,0.16,52.26-23.27,52.32-51.93C1342.42,222.49,1319.09,199.02,1290.06,198.83z M1310.4,269.43
				c-1.37,2.42-3.24,4.22-5.47,5.56c-2.27,1.37-4.7,2.2-7.24,2.63c-0.61,0.1-0.71,0.36-0.7,0.96c0.03,1.69,0.02,3.38,0.01,5.11
				c0,0.41-0.33,0.74-0.73,0.74h-12.16c-0.41,0-0.74-0.33-0.74-0.74v-5.29c0-0.34-0.23-0.64-0.56-0.72c-1.58-0.39-3.1-0.72-4.58-1.2
				c-2.95-0.97-5.59-2.56-7.57-5.31c-1.63-2.26-2.47-4.89-2.84-7.72c-0.16-1.23-0.2-2.49-0.31-3.81c0.3-0.02,0.5-0.04,0.71-0.04
				c4.46,0,8.92,0.01,13.38-0.01c0.46,0,0.74,0.06,0.67,0.7c-0.04,0.32,0.04,0.67,0.09,1c0.37,2.52,1.46,3.82,3.8,4.16
				c2.51,0.36,5.05,0.4,7.56-0.09c0.58-0.11,1.16-0.35,1.69-0.66c1.92-1.1,2.03-3.69,0.25-5.03c-1.33-1-2.84-1.44-4.36-1.85
				c-3.54-0.95-7.11-1.77-10.62-2.81c-2.96-0.88-5.73-2.28-8.08-4.57c-2.41-2.35-3.77-5.34-4.13-8.88
				c-0.26-2.56-0.14-5.09,0.57-7.58c1-3.49,2.96-6.09,5.67-8.04c2.57-1.85,5.43-2.8,8.39-3.46c0.06-0.01,0.12-0.04,0.24-0.08v-6.09
				c0-0.41,0.33-0.74,0.74-0.74h12.15c0.89,0,0.82,0.36,0.82,0.86c-0.07,1.61-0.03,3.22-0.04,4.83c-0.01,0.65,0.44,1.23,1.08,1.38
				c2.04,0.48,4.01,1.16,5.92,2.15c4.71,2.44,7.6,7.59,7.45,13.42c0,0.14-0.03,0.28-0.04,0.48h-0.6h-13.08
				c-0.4,0-0.73-0.29-0.8-0.68l-0.08-0.5c-0.28-1.72-1.26-2.77-2.69-3.27c-2.53-0.88-5.07-0.77-7.59,0.14
				c-0.34,0.12-0.67,0.32-0.97,0.55c-1.83,1.34-1.79,3.66,0.08,4.96c1.56,1.08,3.31,1.55,5.07,1.99c2.96,0.74,5.95,1.38,8.9,2.21
				c2.92,0.82,5.73,1.99,8.2,4.01c3.59,2.95,5.08,7.02,4.95,11.92C1312.7,263.37,1312.03,266.55,1310.4,269.43z"/>
		</g>
	</g>
</g>
<circle class="st4" cx="-4483.88" cy="318.54" r="20.54"/>
<circle class="st4" cx="-4329.17" cy="318.54" r="20.54"/>
<circle class="st4" cx="-3809.17" cy="318.54" r="20.54"/>
<g>
	<g>
		<g>
			<g>
				<path class="st0" d="M-1830,497.42c-136.43,0-247.42-110.99-247.42-247.42S-1966.43,2.58-1830,2.58s247.42,110.99,247.42,247.42
					S-1693.57,497.42-1830,497.42z M-1830,49.7c-110.45,0-200.3,89.85-200.3,200.3s89.85,200.3,200.3,200.3
					c110.45,0,200.3-89.85,200.3-200.3S-1719.55,49.7-1830,49.7z"/>
			</g>
		</g>
	</g>
	<g>
		<path class="st0" d="M-1724.15,170.04h-41.19c-2.43,0-4.77,0.34-7.02,0.91v-12.02c0-15.77-12.83-28.61-28.61-28.61h-136.49
			c-15.78,0-28.61,12.83-28.61,28.61v19.15h-24.74c-6.13,0-11.15,5.02-11.15,11.15s5.02,11.15,11.15,11.15h24.74v13.17h-9.83
			c-6.13,0-11.15,5.02-11.15,11.15s5.02,11.15,11.15,11.15h9.83v64.94c0,15.77,12.83,28.61,28.61,28.61h12.41
			c4.8,18.25,21.44,31.75,41.18,31.75c19.74,0,36.38-13.5,41.18-31.75h41.72c6.73,0,12.91-2.35,17.8-6.25
			c3.62,2.89,7.96,4.92,12.69,5.78c4.64,18.49,21.39,32.22,41.3,32.22c19.91,0,36.66-13.73,41.3-32.22
			c13.37-2.43,23.55-14.15,23.55-28.21v-60.78C-1664.33,225.55-1695.48,170.04-1724.15,170.04z M-1866,329.37
			c-3.67,6.04-10.3,10.1-17.87,10.1c-7.57,0-14.2-4.06-17.87-10.1h0.44c-1.96-3.15-3.11-6.85-3.11-10.83
			c0-3.98,1.15-7.68,3.11-10.83h-0.44c3.67-6.04,10.3-10.1,17.87-10.1c7.57,0,14.2,4.06,17.87,10.1h-0.44
			c1.96,3.15,3.11,6.85,3.11,10.83c0,3.98-1.15,7.68-3.11,10.83H-1866z M-1794.02,198.71V300.7v0.07c0,3.77-3.19,6.95-6.95,6.95
			h-41.72c-4.8-18.25-21.44-31.75-41.18-31.75c-19.74,0-36.38,13.5-41.18,31.75h-12.41c-3.77,0-6.95-3.19-6.95-6.95v-64.94h49.4
			c6.13,0,11.15-5.02,11.15-11.15s-5.02-11.15-11.15-11.15h-49.4v-13.17h34.49c6.13,0,11.15-5.02,11.15-11.15
			s-5.02-11.15-11.15-11.15h-34.49v-19.15c0-3.77,3.19-6.95,6.95-6.95h136.49c3.77,0,6.95,3.19,6.95,6.95V198.71z M-1711.3,329.37
			c-3.67,6.04-10.3,10.1-17.87,10.1c-7.57,0-14.2-4.06-17.87-10.1h0.44c-1.96-3.15-3.11-6.85-3.11-10.83
			c0-3.98,1.15-7.68,3.11-10.83h-0.44c3.67-6.04,10.3-10.1,17.87-10.1c7.57,0,14.2,4.06,17.87,10.1h-0.44
			c1.96,3.15,3.11,6.85,3.11,10.83c0,3.98-1.15,7.68-3.11,10.83H-1711.3z M-1685.98,300.7c0,2.1-0.98,4.02-2.5,5.32
			c-5.36-17.38-21.58-30.05-40.7-30.05s-35.33,12.66-40.7,30.05c-1.52-1.3-2.5-3.22-2.5-5.32V198.71c0-3.81,3.21-7.02,7.02-7.02
			h41.19c2.76,0,6.28,2.17,10.06,5.6h-22.78c-10.98,0-19.91,8.93-19.91,19.91v20.7c0,10.98,8.93,19.91,19.91,19.91h50.9V300.7z
			 M-1685.98,241.58h-50.9c-1.99,0-3.67-1.68-3.67-3.67v-20.7c0-1.99,1.68-3.67,3.67-3.67h36.6c7.38,10.4,13.46,21.65,14.29,26.7
			V241.58z"/>
	</g>
</g>
</svg>
