<?xml version="1.0" encoding="utf-8"?>
<!-- Generator: Adobe Illustrator 23.0.1, SVG Export Plug-In . SVG Version: 6.00 Build 0)  -->
<svg version="1.1" id="Capa_1" xmlns="http://www.w3.org/2000/svg" xmlns:xlink="http://www.w3.org/1999/xlink" x="0px" y="0px"
	 viewBox="0 0 1000 1000" style="enable-background:new 0 0 1000 1000;" xml:space="preserve">
<style type="text/css">
	.st0{fill:#00B900;}
	.st1{fill:#FFFFFF;}
	.st2{fill-rule:evenodd;clip-rule:evenodd;fill:#FFFFFF;}
	.st3{fill:url(#SVGID_1_);}
	.st4{fill:#3B5896;}
	.st5{fill:#03ACF9;}
	.st6{fill:#029BD8;}
	.st7{fill:#B5D1DB;}
	.st8{fill:#D6E2EA;}
	.st9{fill:#76C0FC;}
	.st10{fill:#7CD06F;}
	.st11{fill:#C04B2C;}
	.st12{fill:#EBB129;}
</style>
<g>
	<path class="st0" d="M-292.27,979.5h-607.45c-91.35,0-166.08-74.74-166.08-166.08V186.58c0-91.35,74.74-166.08,166.08-166.08
		h607.45c91.35,0,166.08,74.74,166.08,166.08v626.83C-126.19,904.76-200.93,979.5-292.27,979.5z"/>
	<g>
		<path class="st1" d="M-936.83,840.67l48.85-182.25c-27.66-49.9-42.21-105.81-42.21-162.57c0-185.55,150.96-336.51,336.51-336.51
			c185.55,0,336.52,150.96,336.52,336.51c0,185.55-150.96,336.52-336.52,336.52c-55.7,0-110.72-14.06-159.96-40.77L-936.83,840.67z
			 M-744.54,723.29l11.54,6.88c42.35,25.24,90.53,38.58,139.31,38.58c150.48,0,272.91-122.42,272.91-272.91
			s-122.43-272.9-272.91-272.9c-150.47,0-272.9,122.42-272.9,272.9c0,49.69,13.8,98.61,39.91,141.49l7.08,11.62l-27.27,101.75
			L-744.54,723.29z"/>
		<path class="st2" d="M-468.5,542.65c-13.85-8.29-31.87-17.53-48.19-10.86c-12.52,5.12-20.51,24.72-28.62,34.72
			c-4.16,5.14-9.13,5.94-15.52,3.37c-46.99-18.72-83-50.09-108.93-93.31c-4.39-6.72-3.61-12.01,1.69-18.24
			c7.84-9.22,17.67-19.69,19.79-32.13c2.12-12.43-3.71-26.96-8.85-38.03c-6.57-14.14-13.91-34.31-28.07-42.31
			c-13.03-7.36-30.18-3.24-41.78,6.21c-20.03,16.31-29.69,41.86-29.4,67.19c0.08,7.2,0.97,14.38,2.64,21.32
			c4.04,16.71,11.76,32.3,20.46,47.14c6.55,11.18,13.67,22.03,21.35,32.47c25.14,34.14,56.4,63.81,92.61,85.99
			c18.09,11.08,37.58,20.8,57.76,27.46c22.63,7.48,42.79,15.26,67.23,10.62c25.58-4.86,50.81-20.69,60.96-45.35
			c3.01-7.3,4.51-15.43,2.82-23.14C-434.03,559.83-455.61,550.36-468.5,542.65z"/>
	</g>
</g>
<g>
	<linearGradient id="SVGID_1_" gradientUnits="userSpaceOnUse" x1="795.6223" y1="-10.3007" x2="206.3777" y2="1010.3007">
		<stop  offset="1.104800e-03" style="stop-color:#FBE18A"/>
		<stop  offset="0.2094" style="stop-color:#FCBB45"/>
		<stop  offset="0.3765" style="stop-color:#F75274"/>
		<stop  offset="0.5238" style="stop-color:#D53692"/>
		<stop  offset="0.7394" style="stop-color:#8F39CE"/>
		<stop  offset="1" style="stop-color:#5B4FE9"/>
	</linearGradient>
	<path class="st3" d="M804.73,979.5H197.27c-91.35,0-166.08-74.74-166.08-166.08V186.58c0-91.35,74.74-166.08,166.08-166.08h607.45
		c91.35,0,166.08,74.74,166.08,166.08v626.83C970.81,904.76,896.07,979.5,804.73,979.5z"/>
	<g>
		<g>
			<path class="st1" d="M680.55,280.77c-22.08,0-39.98,17.9-39.98,39.98c0,22.08,17.9,39.98,39.98,39.98
				c22.08,0,39.98-17.9,39.98-39.98C720.54,298.67,702.64,280.77,680.55,280.77z"/>
			<path class="st1" d="M502.8,332.05c-92.61,0-167.96,75.34-167.96,167.95c0,92.61,75.35,167.95,167.96,167.95
				c92.61,0,167.95-75.35,167.95-167.95C670.75,407.39,595.41,332.05,502.8,332.05z M502.8,607.59
				c-59.33,0-107.59-48.26-107.59-107.59s48.26-107.59,107.59-107.59c59.32,0,107.58,48.26,107.58,107.59
				S562.12,607.59,502.8,607.59z"/>
			<path class="st1" d="M636.14,841H363.85C250.9,841,159,749.1,159,636.15v-272.3C159,250.89,250.9,159,363.85,159h272.29
				C749.09,159,841,250.89,841,363.85v272.3C841,749.1,749.09,841,636.14,841z M363.85,223.16c-77.58,0-140.69,63.11-140.69,140.69
				v272.3c0,77.58,63.11,140.69,140.69,140.69h272.29c77.58,0,140.7-63.11,140.7-140.69v-272.3c0-77.58-63.12-140.69-140.7-140.69
				H363.85z"/>
		</g>
	</g>
</g>
<g>
	<path class="st4" d="M1908.73,20.5h-607.45c-91.35,0-166.08,74.74-166.08,166.08v626.83c0,91.35,74.74,166.08,166.08,166.08h305.52
		V613.89H1474V462.7h132.8V347.47c0-131.08,78.09-203.49,197.56-203.49c57.22,0,117.08,10.22,117.08,10.22v128.71h-65.96
		c-64.97,0-85.23,40.32-85.23,81.68v98.11h145.06l-23.19,151.19h-121.87V979.5h138.48c91.35,0,166.08-74.74,166.08-166.08V186.58
		C2074.81,95.24,2000.07,20.5,1908.73,20.5z"/>
</g>
<g>
	<path class="st5" d="M3069.73,979.5h-607.45c-91.35,0-166.08-74.74-166.08-166.08V186.58c0-91.35,74.74-166.08,166.08-166.08
		h607.45c91.35,0,166.08,74.74,166.08,166.08v626.83C3235.81,904.76,3161.07,979.5,3069.73,979.5z"/>
	<g>
		<path class="st1" d="M3128.7,271.16c-23.22,10.5-48.91,16.88-73.97,21.09c11.9-2,29.37-23.53,36.37-32.24
			c10.7-13.28,19.55-28.42,24.55-44.77c0.64-1.28,1.11-2.88-0.17-3.85c-1.61-0.64-2.65-0.31-3.92,0.33
			c-27.98,14.99-56.91,25.86-87.7,33.56c-2.55,0.64-4.44,0-6.04-1.6c-2.55-2.88-4.95-5.6-7.67-7.84
			c-12.94-11.01-26.82-19.65-42.49-26.03c-20.56-8.38-43.02-11.93-65.15-10.49c-21.54,1.4-42.7,7.47-61.82,17.46
			c-19.16,10.01-36.25,23.93-49.86,40.73c-14.08,17.38-24.46,37.9-29.78,59.65c-5.13,20.99-4.71,41.76-1.58,62.97
			c0.47,3.52,0.16,3.99-3.03,3.52c-120.45-17.92-220.29-61.02-301.34-153.38c-3.52-4.01-5.43-4.01-8.31,0.31
			c-35.47,53.16-18.26,138.57,26.04,180.55c5.91,5.6,11.98,11.19,18.52,16.3c-2.39,0.49-31.87-2.71-58.15-16.3
			c-3.52-2.22-5.28-0.95-5.6,3.04c-0.33,5.75,0.17,11.03,0.95,17.26c6.81,53.89,44.13,103.73,95.23,123.18
			c6.07,2.55,12.78,4.8,19.32,5.91c-11.65,2.55-23.63,4.38-57.03,1.77c-4.16-0.8-5.74,1.28-4.16,5.27
			c25.09,68.4,79.26,88.75,119.83,100.34c5.43,0.95,10.87,0.95,16.31,2.22c-0.33,0.49-0.66,0.49-0.97,0.96
			c-13.46,20.52-60.1,35.78-81.83,43.37c-39.51,13.81-82.53,20.02-124.29,15.91c-6.68-0.98-8.09-0.91-9.9,0
			c-1.83,1.13-0.23,2.73,1.91,4.46c8.48,5.6,17.1,10.55,25.89,15.35c26.52,14.06,54.17,25.25,83.08,33.23
			c149.31,41.23,317.48,10.93,429.59-100.45c88.04-87.47,118.89-208.1,118.89-328.87c0-4.73,5.59-7.34,8.9-9.83
			c22.91-17.21,41.38-37.8,58.46-60.8c3.84-5.16,3.88-9.76,3.88-11.65c0-0.33,0-0.63,0-0.63
			C3131.7,269.23,3131.67,269.81,3128.7,271.16z"/>
	</g>
</g>
<g>
	<path class="st6" d="M4285.73,979.5h-607.45c-91.35,0-166.08-74.74-166.08-166.08V186.58c0-91.35,74.74-166.08,166.08-166.08
		h607.45c91.35,0,166.08,74.74,166.08,166.08v626.83C4451.81,904.76,4377.07,979.5,4285.73,979.5z"/>
	<g>
		<path class="st7" d="M3810.61,559.51l63.74,194.99c4.53,13.86,21.59,18.81,32.83,9.52l190.38-157.16
			c0,0-202.31-78.91-202.31-74.61C3895.26,536.55,3810.61,559.51,3810.61,559.51z"/>
		<path class="st1" d="M4312.91,184.75c-124.33,49.17-525.64,213.62-677.53,275.93c-20.05,8.23-18.85,37,1.8,43.58l173.42,55.24
			l63.54,194.37c2.55,7.81,9.01,12.86,16.21,14.21c5.85,1.1,14.47-157.4,14.47-157.4s182.31,135.2,268.79,199.06
			c21.31,15.73,51.73,3.9,56.77-22.1c25.76-132.77,90.17-464.73,112.19-578.22C4345.89,192.36,4329.08,178.36,4312.91,184.75z"/>
		<path class="st8" d="M3890.36,768.08c5.84,1.1,14.46-157.4,14.46-157.4l299.51-281.33c2.02-1.9-0.4-5.11-2.78-3.68l-390.95,233.84
			l63.54,194.37C3876.71,761.69,3883.16,766.73,3890.36,768.08z"/>
	</g>
</g>
<g>
	<path class="st1" d="M5428.73,979.5h-607.45c-91.35,0-166.08-74.74-166.08-166.08V186.58c0-91.35,74.74-166.08,166.08-166.08
		h607.45c91.35,0,166.08,74.74,166.08,166.08v626.83C5594.81,904.76,5520.07,979.5,5428.73,979.5z"/>
	<g id="_x37_XIY64_1_">
		<g>
			<path class="st9" d="M5176,498c-1.62-1.41-8.72-1.34-10.24-2.86c-96.69-96.67-193.37-193.35-290.06-290.03
				c-1.53-1.53-3.16-2.96-4.74-4.43c-2.67,0.66-4.75,2.33-6.81,4.03c-10.86,8.95-16,20.53-16,34.54c0.02,79.65,0,159.3,0.01,238.95
				c0,7.33,0.08,14.66,0.13,21.99c-0.09,2.16-0.27,4.32-0.27,6.47c-0.02,59.99-0.01,119.98-0.01,179.97
				c0,25.16-0.27,50.33,0.11,75.49c0.26,17.1,7.72,30.28,23.5,38.06c0.49-1.92,2.13-2.93,3.4-4.2
				c97.7-97.73,298.23-294.34,298.99-294.99C5175.6,501.13,5177.4,498.6,5176,498z"/>
			<path class="st10" d="M5170.6,499.41c-1.62-1.42-3.32-2.75-4.84-4.26c-96.69-96.67-193.37-193.35-290.06-290.03
				c-1.53-1.53-3.16-2.96-4.74-4.43c12.6-7.74,25.79-7.83,38.49-1.23c18.44,9.59,36.39,20.14,54.54,30.29
				c34.85,19.5,69.69,39,104.53,58.51c43.12,24.14,86.24,48.28,129.36,72.41c22.21,12.43,44.44,24.84,66.64,37.29
				c1.72,0.96,3.31,2.16,4.96,3.25c-0.67,0.74-1.3,1.52-2,2.23c-30.28,30.29-60.56,60.57-90.88,90.82
				C5174.74,496.1,5173.2,498.39,5170.6,499.41z"/>
			<path class="st11" d="M4871.62,800.19c0.49-1.92,2.13-2.93,3.4-4.2c97.7-97.73,195.42-195.45,293.14-293.16
				c0.7-0.7,1.5-1.31,2.25-1.96c1.87,0.54,2.97,2.09,4.25,3.37c10.13,10.1,20.25,20.21,30.35,30.34
				c21.49,21.55,42.96,43.12,64.45,64.68c-18.23,10.3-36.43,20.67-54.7,30.9c-69.66,39.01-139.35,77.98-209.02,116.97
				c-31.21,17.46-62.39,34.96-93.64,52.36C4898.78,806.89,4885.23,807.4,4871.62,800.19z"/>
			<path class="st12" d="M5268.78,598.59c-20.82-20.89-88.21-88.05-97.52-97.47c-0.6-0.6-0.59-1.57,0.02-2.17
				c8.75-8.64,68.14-67.47,96.2-95.53c0.42-0.42,0.81-0.86,1.19-1.3c0.47-0.54,1.26-0.68,1.89-0.34
				c6.78,3.69,13.58,7.33,20.32,11.09c29.63,16.54,59.26,33.09,88.86,49.68c15.24,8.55,22.6,22.07,22.34,39.1
				c-0.24,15.94-8.03,28.2-22.06,36.12c-35.6,20.09-71.24,40.12-106.88,60.14c-0.86,0.49-1.85,0.76-2.82,1.05
				C5269.77,599.14,5269.18,598.99,5268.78,598.59z"/>
		</g>
	</g>
</g>
</svg>
